<svg width="732" height="395" viewBox="0 0 732 395" class="keymap" xmlns="http://www.w3.org/2000/svg" xmlns:xlink="http://www.w3.org/1999/xlink">
<style>/* inherit to force styles through use tags */
svg path {
    fill: inherit;
}

/* font and background color specifications */
svg.keymap {
    font-family: SFMono-Regular,Consolas,Liberation Mono,Menlo,monospace;
    font-size: 14px;
    font-kerning: normal;
    text-rendering: optimizeLegibility;
    fill: #24292e;
}

/* default key styling */
rect.key {
    fill: #f6f8fa;
}

rect.key, rect.combo {
    stroke: #c9cccf;
    stroke-width: 1;
}

/* default key side styling, only used is draw_key_sides is set */
rect.side {
    filter: brightness(90%);
}

/* color accent for combo boxes */
rect.combo, rect.combo-separate {
    fill: #cdf;
}

/* color accent for held keys */
rect.held, rect.combo.held {
    fill: #fdd;
}

/* color accent for ghost (optional) keys */
rect.ghost, rect.combo.ghost {
    stroke-dasharray: 4, 4;
    stroke-width: 2;
}

text {
    text-anchor: middle;
    dominant-baseline: middle;
}

/* styling for layer labels */
text.label {
    font-weight: bold;
    text-anchor: start;
    stroke: white;
    stroke-width: 4;
    paint-order: stroke;
}

/* styling for optional footer */
text.footer {
    text-anchor: end;
    dominant-baseline: auto;
    stroke: white;
    stroke-width: 4;
    paint-order: stroke;
}

/* styling for combo tap, and key non-tap label text */
text.combo, text.hold, text.shifted, text.left, text.right, text.tl, text.tr, text.bl, text.br {
    font-size: 11px;
}

text.hold, text.bl, text.br {
    text-anchor: middle;
    dominant-baseline: auto;
}

text.shifted, text.tl, text.tr {
    text-anchor: middle;
    dominant-baseline: hanging;
}

text.left, text.tl, text.bl {
    text-anchor: start;
}

text.right, text.tr, text.br {
    text-anchor: end;
}

text.layer-activator {
    text-decoration: underline;
}

/* styling for hold/shifted label text in combo box */
text.combo.hold, text.combo.shifted, text.combo.left, text.combo.right {
    font-size: 8px;
}

/* lighter symbol for transparent keys */
text.trans {
    fill: #7b7e81;
}

/* styling for combo dendrons */
path.combo {
    stroke-width: 1;
    stroke: gray;
    fill: none;
}

/* Start Tabler Icons Cleanup */
/* cannot use height/width with glyphs */
.icon-tabler > path {
    fill: inherit;
    stroke: inherit;
    stroke-width: 2;
}
/* hide tabler's default box */
.icon-tabler > path[stroke="none"][fill="none"] {
    visibility: hidden;
}
/* End Tabler Icons Cleanup */

svg.keymap { fill: #d1d6db; }
rect.key { fill: #3f4750; }
rect.key, rect.combo { stroke: #60666c; }
rect.combo, rect.combo-separate { fill: #1f3d7a; }
rect.held, rect.combo.held { fill: #854747; }
text.label, text.footer { stroke: black; }
text.trans { fill: #7e8184; }
path.combo { stroke: #7f7f7f; }
</style>
<g transform="translate(30, 0)" class="layer-Base">
<text x="0" y="28" class="label" id="Base">Base:</text>
<g transform="translate(0, 56)">
<g transform="translate(28, 81)" class="key keypos-0">
<rect rx="6" ry="6" x="-26" y="-26" width="52" height="52" class="key"/>
<text x="0" y="0" class="key tap">esc</text>
</g>
<g transform="translate(84, 46)" class="key keypos-1">
<rect rx="6" ry="6" x="-26" y="-26" width="52" height="52" class="key"/>
<text x="0" y="0" class="key tap">x</text>
</g>
<g transform="translate(140, 28)" class="key keypos-2">
<rect rx="6" ry="6" x="-26" y="-26" width="52" height="52" class="key"/>
<text x="0" y="0" class="key tap">w</text>
</g>
<g transform="translate(196, 44)" class="key keypos-3">
<rect rx="6" ry="6" x="-26" y="-26" width="52" height="52" class="key"/>
</g>
<g transform="translate(252, 52)" class="key keypos-4">
<rect rx="6" ry="6" x="-26" y="-26" width="52" height="52" class="key"/>
</g>
<g transform="translate(420, 52)" class="key keypos-5">
<rect rx="6" ry="6" x="-26" y="-26" width="52" height="52" class="key"/>
</g>
<g transform="translate(476, 44)" class="key keypos-6">
<rect rx="6" ry="6" x="-26" y="-26" width="52" height="52" class="key"/>
</g>
<g transform="translate(532, 28)" class="key keypos-7">
<rect rx="6" ry="6" x="-26" y="-26" width="52" height="52" class="key"/>
<text x="0" y="0" class="key tap">✦</text>
</g>
<g transform="translate(588, 46)" class="key keypos-8">
<rect rx="6" ry="6" x="-26" y="-26" width="52" height="52" class="key"/>
<text x="0" y="0" class="key tap">✦</text>
</g>
<g transform="translate(644, 81)" class="key keypos-9">
<rect rx="6" ry="6" x="-26" y="-26" width="52" height="52" class="key"/>
</g>
<g transform="translate(28, 137)" class="key keypos-10">
<rect rx="6" ry="6" x="-26" y="-26" width="52" height="52" class="key"/>
<text x="0" y="0" class="key tap">s</text>
</g>
<g transform="translate(84, 102)" class="key keypos-11">
<rect rx="6" ry="6" x="-26" y="-26" width="52" height="52" class="key"/>
<text x="0" y="0" class="key tap">c</text>
</g>
<g transform="translate(140, 84)" class="key keypos-12">
<rect rx="6" ry="6" x="-26" y="-26" width="52" height="52" class="key"/>
<text x="0" y="0" class="key tap">n</text>
</g>
<g transform="translate(196, 100)" class="key keypos-13">
<rect rx="6" ry="6" x="-26" y="-26" width="52" height="52" class="key"/>
<text x="0" y="0" class="key tap">t</text>
</g>
<g transform="translate(252, 108)" class="key keypos-14">
<rect rx="6" ry="6" x="-26" y="-26" width="52" height="52" class="key"/>
</g>
<g transform="translate(420, 108)" class="key keypos-15">
<rect rx="6" ry="6" x="-26" y="-26" width="52" height="52" class="key"/>
</g>
<g transform="translate(476, 100)" class="key keypos-16">
<rect rx="6" ry="6" x="-26" y="-26" width="52" height="52" class="key"/>
<text x="0" y="0" class="key tap">a</text>
</g>
<g transform="translate(532, 84)" class="key keypos-17">
<rect rx="6" ry="6" x="-26" y="-26" width="52" height="52" class="key"/>
<text x="0" y="0" class="key tap">e</text>
</g>
<g transform="translate(588, 102)" class="key keypos-18">
<rect rx="6" ry="6" x="-26" y="-26" width="52" height="52" class="key"/>
<text x="0" y="0" class="key tap">i</text>
</g>
<g transform="translate(644, 137)" class="key keypos-19">
<rect rx="6" ry="6" x="-26" y="-26" width="52" height="52" class="key"/>
<text x="0" y="0" class="key tap">h</text>
</g>
<g transform="translate(28, 193)" class="key held keypos-20">
<rect rx="6" ry="6" x="-26" y="-26" width="52" height="52" class="key held"/>
<text x="0" y="0" class="key held tap">Right</text>
</g>
<g transform="translate(84, 158)" class="key keypos-21">
<rect rx="6" ry="6" x="-26" y="-26" width="52" height="52" class="key"/>
<text x="0" y="0" class="key tap">f</text>
</g>
<g transform="translate(140, 140)" class="key keypos-22">
<rect rx="6" ry="6" x="-26" y="-26" width="52" height="52" class="key"/>
<text x="0" y="0" class="key tap">l</text>
</g>
<g transform="translate(196, 156)" class="key keypos-23">
<rect rx="6" ry="6" x="-26" y="-26" width="52" height="52" class="key"/>
<text x="0" y="0" class="key tap">d</text>
</g>
<g transform="translate(252, 164)" class="key keypos-24">
<rect rx="6" ry="6" x="-26" y="-26" width="52" height="52" class="key"/>
</g>
<g transform="translate(420, 164)" class="key keypos-25">
<rect rx="6" ry="6" x="-26" y="-26" width="52" height="52" class="key"/>
</g>
<g transform="translate(476, 156)" class="key keypos-26">
<rect rx="6" ry="6" x="-26" y="-26" width="52" height="52" class="key"/>
<text x="0" y="0" class="key tap">u</text>
</g>
<g transform="translate(532, 140)" class="key keypos-27">
<rect rx="6" ry="6" x="-26" y="-26" width="52" height="52" class="key"/>
<text x="0" y="0" class="key tap">o</text>
</g>
<g transform="translate(588, 158)" class="key keypos-28">
<rect rx="6" ry="6" x="-26" y="-26" width="52" height="52" class="key"/>
<text x="0" y="0" class="key tap">y</text>
</g>
<g transform="translate(644, 193)" class="key held keypos-29">
<rect rx="6" ry="6" x="-26" y="-26" width="52" height="52" class="key held"/>
<text x="0" y="0" class="key held tap">Left</text>
</g>
<g transform="translate(221, 221) rotate(15.0)" class="key held keypos-30">
<rect rx="6" ry="6" x="-26" y="-26" width="52" height="52" class="key held"/>
<text x="0" y="0" class="key held tap">Nav</text>
</g>
<g transform="translate(279, 245) rotate(30.0)" class="key keypos-31">
<rect rx="6" ry="6" x="-26" y="-26" width="52" height="52" class="key"/>
<text x="0" y="0" class="key tap">r</text>
</g>
<g transform="translate(393, 245) rotate(-30.0)" class="key keypos-32">
<rect rx="6" ry="6" x="-26" y="-26" width="52" height="52" class="key"/>
<text x="0" y="0" class="key tap">spc</text>
</g>
<g transform="translate(451, 221) rotate(-15.0)" class="key held keypos-33">
<rect rx="6" ry="6" x="-26" y="-26" width="52" height="52" class="key held"/>
<text x="0" y="0" class="key held tap">FnSym</text>
</g>
<g class="combo combopos-0">
<rect rx="6" ry="6" x="182" y="59" width="28" height="26" class="combo"/>
<text x="196" y="72" class="combo tap">v</text>
</g>
<g class="combo combopos-1">
<rect rx="6" ry="6" x="182" y="115" width="28" height="26" class="combo"/>
<text x="196" y="128" class="combo tap">k</text>
</g>
<g class="combo combopos-2">
<rect rx="6" ry="6" x="126" y="43" width="28" height="26" class="combo"/>
<text x="140" y="56" class="combo tap">m</text>
</g>
<g class="combo combopos-3">
<rect rx="6" ry="6" x="126" y="99" width="28" height="26" class="combo"/>
<text x="140" y="112" class="combo tap">g</text>
</g>
<g class="combo combopos-4">
<rect rx="6" ry="6" x="70" y="61" width="28" height="26" class="combo"/>
<text x="84" y="74" class="combo tap">p</text>
</g>
<g class="combo combopos-5">
<rect rx="6" ry="6" x="70" y="117" width="28" height="26" class="combo"/>
<text x="84" y="130" class="combo tap">b</text>
</g>
<g class="combo combopos-6">
<rect rx="6" ry="6" x="14" y="96" width="28" height="26" class="combo"/>
<text x="28" y="109" class="combo tap">✦</text>
</g>
<g class="combo combopos-7">
<rect rx="6" ry="6" x="14" y="152" width="28" height="26" class="combo"/>
<text x="28" y="165" class="combo tap">✦</text>
</g>
<g class="combo combopos-8">
<rect rx="6" ry="6" x="462" y="59" width="28" height="26" class="combo"/>
<text x="476" y="72" class="combo tap">ing</text>
</g>
<g class="combo combopos-9">
<rect rx="6" ry="6" x="462" y="115" width="28" height="26" class="combo"/>
<text x="476" y="128" class="combo tap">✦</text>
</g>
<g class="combo combopos-10">
<rect rx="6" ry="6" x="518" y="43" width="28" height="26" class="combo"/>
<text x="532" y="56" class="combo tap">✦</text>
</g>
<g class="combo combopos-11">
<rect rx="6" ry="6" x="518" y="99" width="28" height="26" class="combo"/>
<text x="532" y="112" class="combo tap">✦</text>
</g>
<g class="combo combopos-12">
<rect rx="6" ry="6" x="574" y="61" width="28" height="26" class="combo"/>
<text x="588" y="74" class="combo tap">✦</text>
</g>
<g class="combo combopos-13">
<rect rx="6" ry="6" x="574" y="117" width="28" height="26" class="combo"/>
<text x="588" y="130" class="combo tap">✦</text>
</g>
<g class="combo combopos-14">
<rect rx="6" ry="6" x="630" y="96" width="28" height="26" class="combo"/>
<text x="644" y="109" class="combo tap">✦</text>
</g>
<g class="combo combopos-15">
<rect rx="6" ry="6" x="630" y="152" width="28" height="26" class="combo"/>
<text x="644" y="165" class="combo tap">✦</text>
</g>
<g class="combo combopos-16">
<path d="M336,165 l-289,-26" class="combo"/>
<path d="M336,165 l289,26" class="combo"/>
<rect rx="6" ry="6" x="322" y="152" width="28" height="26" class="combo"/>
<text x="336" y="165" class="combo tap">&#x27;</text>
</g>
<g class="combo combopos-17">
<path d="M364,148 l-262,-43" class="combo"/>
<path d="M364,148 l262,43" class="combo"/>
<rect rx="6" ry="6" x="350" y="135" width="28" height="26" class="combo"/>
<text x="364" y="148" class="combo tap">.</text>
</g>
<g class="combo combopos-18">
<path d="M392,139 l-234,-51" class="combo"/>
<path d="M392,139 l234,51" class="combo"/>
<rect rx="6" ry="6" x="378" y="126" width="28" height="26" class="combo"/>
<text x="392" y="139" class="combo tap">,</text>
</g>
<g class="combo combopos-19">
<path d="M420,147 l-206,-43" class="combo"/>
<path d="M420,147 l206,43" class="combo"/>
<rect rx="6" ry="6" x="406" y="134" width="28" height="26" class="combo"/>
<text x="420" y="147" class="combo tap">bspc</text>
</g>
<g class="combo combopos-20">
<path d="M560,147 l-68,-37" class="combo"/>
<path d="M560,147 l68,37" class="combo"/>
<rect rx="6" ry="6" x="546" y="134" width="28" height="26" class="combo"/>
<text x="560" y="147" class="combo tap">aa</text>
</g>
<g class="combo combopos-21">
<path d="M588,139 l-43,-42" class="combo"/>
<path d="M588,139 l43,42" class="combo"/>
<rect rx="6" ry="6" x="574" y="126" width="28" height="26" class="combo"/>
<text x="588" y="139" class="combo tap">eu</text>
</g>
<g class="combo combopos-22">
<path d="M364,176 l-261,-16" class="combo"/>
<path d="M364,176 l261,16" class="combo"/>
<rect rx="6" ry="6" x="350" y="163" width="28" height="26" class="combo"/>
<text x="364" y="176" class="combo tap">?</text>
</g>
<g class="combo combopos-23">
<path d="M392,167 l-233,-25" class="combo"/>
<path d="M392,167 l233,25" class="combo"/>
<rect rx="6" ry="6" x="378" y="154" width="28" height="26" class="combo"/>
</g>
<g class="combo combopos-24">
<path d="M420,175 l-205,-17" class="combo"/>
<path d="M420,175 l205,17" class="combo"/>
<rect rx="6" ry="6" x="406" y="162" width="28" height="26" class="combo"/>
<text x="420" y="175" class="combo tap">⏎</text>
</g>
<g class="combo combopos-25">
<path d="M560,175 l-66,-14" class="combo"/>
<path d="M560,175 l66,14" class="combo"/>
<rect rx="6" ry="6" x="546" y="162" width="28" height="26" class="combo"/>
<text x="560" y="175" class="combo tap">uh</text>
</g>
<g class="combo combopos-26">
<path d="M588,167 l-39,-19" class="combo"/>
<path d="M588,167 l39,19" class="combo"/>
<rect rx="6" ry="6" x="574" y="154" width="28" height="26" class="combo"/>
<text x="588" y="167" class="combo tap">oe</text>
</g>
<g class="combo combopos-27">
<path d="M462,219 l164,-23" class="combo"/>
<path d="M462,219 l-164,23" class="combo"/>
<rect rx="6" ry="6" x="448" y="206" width="28" height="26" class="combo"/>
<text x="462" y="219" class="combo tap">j</text>
</g>
<g class="combo combopos-28">
<path d="M518,219 l107,-22" class="combo"/>
<path d="M518,219 l-107,22" class="combo"/>
<rect rx="6" ry="6" x="504" y="206" width="28" height="26" class="combo"/>
<text x="518" y="219" class="combo tap">q</text>
</g>
<g class="combo combopos-29">
<path d="M84,139 l43,-42" class="combo"/>
<path d="M84,139 l-43,42" class="combo"/>
<rect rx="6" ry="6" x="70" y="126" width="28" height="26" class="combo"/>
<text x="84" y="139" class="combo tap">ß</text>
</g>
<g class="combo combopos-30">
<path d="M112,147 l68,-37" class="combo"/>
<path d="M112,147 l-68,37" class="combo"/>
<rect rx="6" ry="6" x="98" y="134" width="28" height="26" class="combo"/>
<text x="112" y="147" class="combo tap">ä</text>
</g>
<g class="combo combopos-31">
<path d="M252,147 l206,-43" class="combo"/>
<path d="M252,147 l-206,43" class="combo"/>
<rect rx="6" ry="6" x="238" y="134" width="28" height="26" class="combo"/>
<text x="252" y="147" class="combo tap">ae</text>
</g>
<g class="combo combopos-32">
<path d="M280,139 l234,-51" class="combo"/>
<path d="M280,139 l-234,51" class="combo"/>
<rect rx="6" ry="6" x="266" y="126" width="28" height="26" class="combo"/>
<text x="280" y="139" class="combo tap">eh</text>
</g>
<g class="combo combopos-33">
<path d="M308,148 l262,-43" class="combo"/>
<path d="M308,148 l-262,43" class="combo"/>
<rect rx="6" ry="6" x="294" y="135" width="28" height="26" class="combo"/>
<text x="308" y="148" class="combo tap">I&#x27;m</text>
</g>
<g class="combo combopos-34">
<path d="M336,165 l289,-26" class="combo"/>
<path d="M336,165 l-289,26" class="combo"/>
<rect rx="6" ry="6" x="322" y="152" width="28" height="26" class="combo"/>
<text x="336" y="165" class="combo tap">hy</text>
</g>
<g class="combo combopos-35">
<path d="M84,167 l-39,19" class="combo"/>
<path d="M84,167 l39,-19" class="combo"/>
<rect rx="6" ry="6" x="70" y="154" width="28" height="26" class="combo"/>
<text x="84" y="167" class="combo tap">ö</text>
</g>
<g class="combo combopos-36">
<path d="M112,175 l-66,14" class="combo"/>
<path d="M112,175 l66,-14" class="combo"/>
<rect rx="6" ry="6" x="98" y="162" width="28" height="26" class="combo"/>
<text x="112" y="175" class="combo tap">ü</text>
</g>
<g class="combo combopos-37">
<path d="M252,175 l-205,17" class="combo"/>
<path d="M252,175 l205,-17" class="combo"/>
<rect rx="6" ry="6" x="238" y="162" width="28" height="26" class="combo"/>
<text x="252" y="175" class="combo tap">only</text>
</g>
<g class="combo combopos-38">
<path d="M280,167 l-233,25" class="combo"/>
<path d="M280,167 l233,-25" class="combo"/>
<rect rx="6" ry="6" x="266" y="154" width="28" height="26" class="combo"/>
<text x="280" y="167" class="combo tap">oh</text>
</g>
<g class="combo combopos-39">
<path d="M308,176 l-261,16" class="combo"/>
<path d="M308,176 l261,-16" class="combo"/>
<rect rx="6" ry="6" x="294" y="163" width="28" height="26" class="combo"/>
<text x="308" y="176" class="combo tap">yr</text>
</g>
<g class="combo combopos-40">
<path d="M154,219 l-107,-22" class="combo"/>
<path d="M154,219 l107,22" class="combo"/>
<rect rx="6" ry="6" x="140" y="206" width="28" height="26" class="combo"/>
<text x="154" y="219" class="combo tap">qu</text>
</g>
<g class="combo combopos-41">
<path d="M210,219 l-164,-23" class="combo"/>
<path d="M210,219 l164,23" class="combo"/>
<rect rx="6" ry="6" x="196" y="206" width="28" height="26" class="combo"/>
<text x="210" y="219" class="combo tap">z</text>
</g>
</g>
</g>
<text x="702.0" y="367.0" class="footer">Generated with <a href="https://github.com/caksoylar/keymap-drawer">keymap-drawer</a></text></svg>
